<svg width="85" height="85" viewBox="0 0 85 85" fill="none" xmlns="http://www.w3.org/2000/svg">
<path d="M69.0625 53.125H53.125V47.8125H69.0625V53.125ZM79.6875 74.375H63.75V69.0625H79.6875V74.375ZM74.375 63.75H58.4375V58.4375H74.375V63.75Z" fill="#136FFE"/>
<path d="M45.1643 53.125C45.1455 50.8837 44.5477 48.6853 43.4289 46.7431C42.3101 44.801 40.7081 43.181 38.7786 42.0405L58.4375 7.96875L53.8422 5.3125L33.7158 40.1784C31.2458 39.6266 28.6768 39.7029 26.2439 40.4004C23.8109 41.0978 21.5917 42.3942 19.7891 44.1708C9.8441 53.7625 10.6144 76.1866 10.6516 77.1375C10.6791 77.8234 10.971 78.472 11.4662 78.9474C11.9614 79.4228 12.6214 79.688 13.3079 79.6875H53.1277C53.6852 79.6875 54.2286 79.5121 54.6808 79.1861C55.1331 78.8601 55.4713 78.4001 55.6476 77.8712C55.8239 77.3423 55.8294 76.7714 55.6631 76.2392C55.4969 75.7071 55.1674 75.2408 54.7214 74.9062C45.3183 67.8513 45.1643 53.2684 45.1643 53.125ZM31.6891 45.1483C33.8151 45.1716 35.8502 46.0138 37.3711 47.4995C38.8919 48.9852 39.7814 51.0001 39.8544 53.125C39.8544 53.2259 39.8597 53.6775 39.8996 54.3708L24.2277 47.4008C25.26 46.5495 26.4513 45.912 27.7322 45.5253C29.0132 45.1386 30.3582 45.0105 31.6891 45.1483ZM41.0391 74.375C38.9159 72.2131 37.5626 69.4131 37.1875 66.4062H31.875C32.0653 69.2332 32.9483 71.97 34.4463 74.375H28.5414C27.4491 70.9278 26.7844 67.3594 26.5625 63.75H21.25C21.4213 67.3486 22.0142 70.9146 23.0164 74.375H15.9375C16.0199 69.4981 16.7079 58.7244 20.7268 51.6561L40.7363 60.5545C41.6977 65.5464 43.7473 70.2652 46.7394 74.375H41.0391Z" fill="#136FFE"/>
</svg>
