<svg width="85" height="85" viewBox="0 0 85 85" fill="none" xmlns="http://www.w3.org/2000/svg">
<path d="M12.1191 6.80664V19.7559H30.3809V6.80664H12.1191ZM33.3691 6.80664V19.7559H72.8809V6.80664H33.3691ZM66.4062 10.625C67.1107 10.625 67.7864 10.9049 68.2845 11.403C68.7826 11.9011 69.0625 12.5768 69.0625 13.2812C69.0625 13.9857 68.7826 14.6614 68.2845 15.1595C67.7864 15.6576 67.1107 15.9375 66.4062 15.9375C65.7018 15.9375 65.0261 15.6576 64.528 15.1595C64.0299 14.6614 63.75 13.9857 63.75 13.2812C63.75 12.5768 64.0299 11.9011 64.528 11.403C65.0261 10.9049 65.7018 10.625 66.4062 10.625ZM37.1875 11.7871H45.1562V14.7754H37.1875V11.7871ZM50.4688 11.7871H58.4375V14.7754H50.4688V11.7871ZM12.1191 22.7441V80.8496H72.8809V22.7441H12.1191ZM42.5 27.7246C56.2295 27.7246 67.4023 38.8975 67.4023 52.627C67.4023 66.3564 56.2295 77.5293 42.5 77.5293C28.7705 77.5293 17.5977 66.3564 17.5977 52.627C17.5977 38.8975 28.7705 27.7246 42.5 27.7246ZM42.5 30.7129C30.3809 30.7129 20.5859 40.5078 20.5859 52.627C20.5859 64.7461 30.3809 74.541 42.5 74.541C50.5518 74.541 57.5742 70.2246 61.376 63.7666L56.3789 59.7656C55.0666 62.3158 53.0771 64.455 50.6288 65.9486C48.1805 67.4422 45.368 68.2324 42.5 68.2324C38.3614 68.2315 34.3926 66.5871 31.4662 63.6607C28.5398 60.7343 26.8954 56.7655 26.8945 52.627C26.8954 48.4884 28.5398 44.5196 31.4662 41.5932C34.3926 38.6668 38.3614 37.0224 42.5 37.0215C45.5034 37.0207 48.4432 37.8865 50.9668 39.5149C53.4904 41.1434 55.4907 43.4653 56.7275 46.2021L61.7744 42.168C58.0723 35.3447 50.834 30.7129 42.5 30.7129ZM41.3545 41.0059C33.0371 41.1885 28.5879 49.4727 31.0615 56.5947C30.9453 50.3193 36.0586 43.6455 41.3545 41.0059ZM63.0361 44.9736L57.7236 49.2236C57.9754 50.3406 58.1034 51.4819 58.1055 52.627C58.1068 54.0581 57.9113 55.4825 57.5244 56.8604L62.7373 61.0439C63.8164 58.4541 64.4141 55.6152 64.4141 52.627C64.4141 49.9375 63.9326 47.3477 63.0361 44.9736Z" fill="#136FFE"/>
</svg>
