<svg width="85" height="85" viewBox="0 0 85 85" fill="none" xmlns="http://www.w3.org/2000/svg">
<path d="M8.5 21.25C8.5 18.9957 9.39553 16.8337 10.9896 15.2396C12.5837 13.6455 14.7457 12.75 17 12.75H51C53.2543 12.75 55.4163 13.6455 57.0104 15.2396C58.6045 16.8337 59.5 18.9957 59.5 21.25V46.75C59.5 49.0043 58.6045 51.1663 57.0104 52.7604C55.4163 54.3545 53.2543 55.25 51 55.25H17C14.7457 55.25 12.5837 54.3545 10.9896 52.7604C9.39553 51.1663 8.5 49.0043 8.5 46.75V21.25ZM63.75 45.322V22.661L73.3337 17.2635C73.6572 17.0817 74.0225 16.9878 74.3935 16.991C74.7645 16.9942 75.1281 17.0945 75.4483 17.2819C75.7685 17.4693 76.0341 17.7372 76.2186 18.0591C76.4031 18.381 76.5001 18.7455 76.5 19.1165V48.875C76.4998 49.2463 76.4023 49.611 76.2173 49.9328C76.0322 50.2547 75.7661 50.5224 75.4454 50.7094C75.1247 50.8965 74.7606 50.9962 74.3894 50.9987C74.0181 51.0012 73.6527 50.9064 73.3295 50.7238L63.75 45.3262V45.322ZM29.75 58.4375H42.5V60.5625C42.5 64.7894 40.8209 68.8432 37.832 71.832C34.8432 74.8209 30.7894 76.5 26.5625 76.5H14.875C14.3114 76.5 13.7709 76.2761 13.3724 75.8776C12.9739 75.4791 12.75 74.9386 12.75 74.375V66.9375C12.75 66.3739 12.9739 65.8334 13.3724 65.4349C13.7709 65.0364 14.3114 64.8125 14.875 64.8125H26.5625C27.4079 64.8125 28.2186 64.4767 28.8164 63.8789C29.4142 63.2811 29.75 62.4704 29.75 61.625V58.4375Z" fill="#136FFE"/>
</svg>
