<svg width="48" height="48" viewBox="0 0 24 24" fill="none" xmlns="http://www.w3.org/2000/svg">
<path d="M11.9999 20C11.7166 20 11.4789 19.904 11.2869 19.712C11.0949 19.52 10.9992 19.2827 10.9999 19V7.82499L6.1249 12.7C5.9249 12.9 5.68724 13 5.4119 13C5.13657 13 4.89924 12.9 4.6999 12.7C4.4999 12.5 4.3999 12.2667 4.3999 12C4.3999 11.7333 4.4999 11.5 4.6999 11.3L11.2999 4.69999C11.3999 4.59999 11.5082 4.52932 11.6249 4.48799C11.7416 4.44665 11.8666 4.42565 11.9999 4.42499C12.1332 4.42499 12.2626 4.44599 12.3879 4.48799C12.5132 4.52999 12.6172 4.60065 12.6999 4.69999L19.2999 11.3C19.4999 11.5 19.5999 11.7333 19.5999 12C19.5999 12.2667 19.4999 12.5 19.2999 12.7C19.0999 12.9 18.8622 13 18.5869 13C18.3116 13 18.0742 12.9 17.8749 12.7L12.9999 7.82499V19C12.9999 19.2833 12.9039 19.521 12.7119 19.713C12.5199 19.905 12.2826 20.0007 11.9999 20Z" fill="white"/>
</svg>
